<svg width="343" height="47" viewBox="0 0 343 47" fill="none" xmlns="http://www.w3.org/2000/svg">
<rect y="0.144653" width="343" height="46" rx="8" fill="white"/>
<path d="M123.913 29.1447V17.5083H126.021V27.3776H131.146V29.1447H123.913ZM136.692 29.3151C135.839 29.3151 135.101 29.1276 134.476 28.7526C133.851 28.3776 133.366 27.853 133.021 27.1787C132.68 26.5045 132.51 25.7166 132.51 24.8151C132.51 23.9136 132.68 23.1238 133.021 22.4458C133.366 21.7678 133.851 21.2412 134.476 20.8662C135.101 20.4912 135.839 20.3037 136.692 20.3037C137.544 20.3037 138.283 20.4912 138.908 20.8662C139.533 21.2412 140.016 21.7678 140.357 22.4458C140.701 23.1238 140.874 23.9136 140.874 24.8151C140.874 25.7166 140.701 26.5045 140.357 27.1787C140.016 27.853 139.533 28.3776 138.908 28.7526C138.283 29.1276 137.544 29.3151 136.692 29.3151ZM136.703 27.6674C137.165 27.6674 137.552 27.5405 137.862 27.2867C138.173 27.0291 138.404 26.6844 138.555 26.2526C138.711 25.8208 138.788 25.3397 138.788 24.8094C138.788 24.2753 138.711 23.7924 138.555 23.3606C138.404 22.925 138.173 22.5784 137.862 22.3208C137.552 22.0632 137.165 21.9344 136.703 21.9344C136.23 21.9344 135.836 22.0632 135.521 22.3208C135.211 22.5784 134.978 22.925 134.822 23.3606C134.671 23.7924 134.595 24.2753 134.595 24.8094C134.595 25.3397 134.671 25.8208 134.822 26.2526C134.978 26.6844 135.211 27.0291 135.521 27.2867C135.836 27.5405 136.23 27.6674 136.703 27.6674ZM146.415 32.5992C145.676 32.5992 145.042 32.4988 144.511 32.2981C143.981 32.1011 143.555 31.8359 143.233 31.5026C142.911 31.1693 142.688 30.8 142.562 30.3947L144.415 29.9458C144.498 30.1162 144.619 30.2848 144.778 30.4515C144.938 30.6219 145.152 30.7621 145.42 30.8719C145.693 30.9856 146.036 31.0424 146.449 31.0424C147.032 31.0424 147.515 30.9003 147.898 30.6162C148.28 30.3359 148.472 29.8738 148.472 29.2299V27.5765H148.369C148.263 27.7886 148.108 28.0064 147.903 28.2299C147.703 28.4534 147.436 28.6409 147.102 28.7924C146.773 28.9439 146.358 29.0197 145.858 29.0197C145.188 29.0197 144.58 28.8625 144.034 28.5481C143.492 28.2299 143.061 27.7564 142.739 27.1276C142.42 26.495 142.261 25.7034 142.261 24.7526C142.261 23.7943 142.42 22.9856 142.739 22.3265C143.061 21.6636 143.494 21.1617 144.04 20.8208C144.585 20.4761 145.193 20.3037 145.864 20.3037C146.375 20.3037 146.795 20.3909 147.125 20.5651C147.458 20.7356 147.723 20.942 147.92 21.1844C148.117 21.4231 148.267 21.6484 148.369 21.8606H148.483V20.4174H150.511V29.2867C150.511 30.0329 150.333 30.6503 149.977 31.139C149.621 31.6276 149.134 31.9931 148.517 32.2356C147.9 32.478 147.199 32.5992 146.415 32.5992ZM146.432 27.406C146.867 27.406 147.239 27.3 147.545 27.0878C147.852 26.8757 148.085 26.5708 148.244 26.1731C148.403 25.7753 148.483 25.2981 148.483 24.7412C148.483 24.192 148.403 23.7109 148.244 23.2981C148.089 22.8852 147.858 22.5651 147.551 22.3378C147.248 22.1068 146.875 21.9912 146.432 21.9912C145.973 21.9912 145.591 22.1106 145.284 22.3492C144.977 22.5878 144.746 22.9155 144.591 23.3322C144.436 23.745 144.358 24.2147 144.358 24.7412C144.358 25.2753 144.436 25.7431 144.591 26.1447C144.75 26.5424 144.983 26.853 145.29 27.0765C145.6 27.2962 145.981 27.406 146.432 27.406ZM152.619 29.1447V20.4174H154.676V29.1447H152.619ZM153.653 19.1787C153.328 19.1787 153.047 19.0708 152.812 18.8549C152.578 18.6352 152.46 18.3719 152.46 18.0651C152.46 17.7545 152.578 17.4912 152.812 17.2753C153.047 17.0556 153.328 16.9458 153.653 16.9458C153.983 16.9458 154.263 17.0556 154.494 17.2753C154.729 17.4912 154.847 17.7545 154.847 18.0651C154.847 18.3719 154.729 18.6352 154.494 18.8549C154.263 19.0708 153.983 19.1787 153.653 19.1787ZM158.848 24.031V29.1447H156.791V20.4174H158.757V21.9003H158.859C159.06 21.4117 159.38 21.0234 159.82 20.7356C160.263 20.4477 160.81 20.3037 161.462 20.3037C162.064 20.3037 162.589 20.4325 163.036 20.6901C163.486 20.9477 163.835 21.3208 164.081 21.8094C164.331 22.2981 164.454 22.8909 164.45 23.5878V29.1447H162.393V23.906C162.393 23.3227 162.242 22.8662 161.939 22.5367C161.64 22.2072 161.225 22.0424 160.695 22.0424C160.335 22.0424 160.015 22.1219 159.734 22.281C159.458 22.4363 159.24 22.6617 159.081 22.9572C158.926 23.2526 158.848 23.6106 158.848 24.031ZM172.311 29.1447L169.845 20.4174H171.942L173.476 26.5537H173.555L175.124 20.4174H177.197L178.766 26.5197H178.851L180.362 20.4174H182.464L179.993 29.1447H177.851L176.214 23.2469H176.095L174.459 29.1447H172.311ZM183.901 29.1447V20.4174H185.957V29.1447H183.901ZM184.935 19.1787C184.609 19.1787 184.329 19.0708 184.094 18.8549C183.859 18.6352 183.741 18.3719 183.741 18.0651C183.741 17.7545 183.859 17.4912 184.094 17.2753C184.329 17.0556 184.609 16.9458 184.935 16.9458C185.264 16.9458 185.545 17.0556 185.776 17.2753C186.01 17.4912 186.128 17.7545 186.128 18.0651C186.128 18.3719 186.01 18.6352 185.776 18.8549C185.545 19.0708 185.264 19.1787 184.935 19.1787ZM192.43 20.4174V22.0083H187.413V20.4174H192.43ZM188.652 18.3265H190.709V26.5197C190.709 26.7962 190.75 27.0083 190.834 27.156C190.921 27.3 191.035 27.3984 191.175 27.4515C191.315 27.5045 191.47 27.531 191.641 27.531C191.769 27.531 191.887 27.5215 191.993 27.5026C192.103 27.4837 192.186 27.4666 192.243 27.4515L192.589 29.0594C192.48 29.0973 192.322 29.139 192.118 29.1844C191.917 29.2299 191.671 29.2564 191.379 29.264C190.864 29.2791 190.4 29.2015 189.987 29.031C189.574 28.8568 189.247 28.5878 189.004 28.2242C188.766 27.8606 188.648 27.406 188.652 26.8606V18.3265ZM196.395 24.031V29.1447H194.338V17.5083H196.349V21.9003H196.452C196.656 21.4079 196.973 21.0197 197.401 20.7356C197.832 20.4477 198.382 20.3037 199.048 20.3037C199.654 20.3037 200.183 20.4306 200.634 20.6844C201.084 20.9382 201.433 21.3094 201.679 21.7981C201.929 22.2867 202.054 22.8833 202.054 23.5878V29.1447H199.997V23.906C199.997 23.3189 199.846 22.8625 199.543 22.5367C199.243 22.2072 198.823 22.0424 198.281 22.0424C197.918 22.0424 197.592 22.1219 197.304 22.281C197.02 22.4363 196.796 22.6617 196.634 22.9572C196.474 23.2526 196.395 23.6106 196.395 24.031ZM209.705 29.1447H207.455L211.551 17.5083H214.153L218.256 29.1447H216.006L212.898 19.8947H212.807L209.705 29.1447ZM209.778 24.5822H215.915V26.2753H209.778V24.5822ZM219.697 32.4174V20.4174H221.72V21.8606H221.839C221.946 21.6484 222.095 21.4231 222.288 21.1844C222.482 20.942 222.743 20.7356 223.072 20.5651C223.402 20.3909 223.822 20.3037 224.334 20.3037C225.008 20.3037 225.616 20.4761 226.158 20.8208C226.703 21.1617 227.135 21.6674 227.453 22.3378C227.775 23.0045 227.936 23.8227 227.936 24.7924C227.936 25.7507 227.779 26.5651 227.464 27.2356C227.15 27.906 226.722 28.4174 226.18 28.7697C225.639 29.1219 225.025 29.2981 224.339 29.2981C223.839 29.2981 223.425 29.2147 223.095 29.0481C222.766 28.8814 222.5 28.6806 222.3 28.4458C222.103 28.2072 221.949 27.9818 221.839 27.7697H221.754V32.4174H219.697ZM221.714 24.781C221.714 25.3454 221.794 25.8397 221.953 26.264C222.116 26.6882 222.349 27.0197 222.652 27.2583C222.959 27.4931 223.33 27.6106 223.766 27.6106C224.22 27.6106 224.601 27.4894 224.908 27.2469C225.214 27.0007 225.446 26.6655 225.601 26.2412C225.76 25.8132 225.839 25.3265 225.839 24.781C225.839 24.2394 225.762 23.7583 225.607 23.3378C225.451 22.9174 225.22 22.5878 224.913 22.3492C224.607 22.1106 224.224 21.9912 223.766 21.9912C223.326 21.9912 222.953 22.1068 222.646 22.3378C222.339 22.5689 222.107 22.8928 221.947 23.3094C221.792 23.7261 221.714 24.2166 221.714 24.781ZM229.697 32.4174V20.4174H231.72V21.8606H231.839C231.946 21.6484 232.095 21.4231 232.288 21.1844C232.482 20.942 232.743 20.7356 233.072 20.5651C233.402 20.3909 233.822 20.3037 234.334 20.3037C235.008 20.3037 235.616 20.4761 236.158 20.8208C236.703 21.1617 237.135 21.6674 237.453 22.3378C237.775 23.0045 237.936 23.8227 237.936 24.7924C237.936 25.7507 237.779 26.5651 237.464 27.2356C237.15 27.906 236.722 28.4174 236.18 28.7697C235.639 29.1219 235.025 29.2981 234.339 29.2981C233.839 29.2981 233.425 29.2147 233.095 29.0481C232.766 28.8814 232.5 28.6806 232.3 28.4458C232.103 28.2072 231.949 27.9818 231.839 27.7697H231.754V32.4174H229.697ZM231.714 24.781C231.714 25.3454 231.794 25.8397 231.953 26.264C232.116 26.6882 232.349 27.0197 232.652 27.2583C232.959 27.4931 233.33 27.6106 233.766 27.6106C234.22 27.6106 234.601 27.4894 234.908 27.2469C235.214 27.0007 235.446 26.6655 235.601 26.2412C235.76 25.8132 235.839 25.3265 235.839 24.781C235.839 24.2394 235.762 23.7583 235.607 23.3378C235.451 22.9174 235.22 22.5878 234.913 22.3492C234.607 22.1106 234.224 21.9912 233.766 21.9912C233.326 21.9912 232.953 22.1068 232.646 22.3378C232.339 22.5689 232.107 22.8928 231.947 23.3094C231.792 23.7261 231.714 24.2166 231.714 24.781ZM241.754 17.5083V29.1447H239.697V17.5083H241.754ZM247.733 29.3151C246.858 29.3151 246.102 29.1333 245.466 28.7697C244.833 28.4022 244.347 27.8833 244.006 27.2128C243.665 26.5386 243.494 25.745 243.494 24.8322C243.494 23.9344 243.665 23.1465 244.006 22.4685C244.35 21.7867 244.831 21.2564 245.449 20.8776C246.066 20.495 246.792 20.3037 247.625 20.3037C248.163 20.3037 248.67 20.3909 249.148 20.5651C249.629 20.7356 250.053 21.0007 250.42 21.3606C250.792 21.7204 251.083 22.1787 251.295 22.7356C251.508 23.2886 251.614 23.9477 251.614 24.7128V25.3435H244.46V23.9572H249.642C249.638 23.5632 249.553 23.2128 249.386 22.906C249.22 22.5954 248.987 22.3511 248.688 22.1731C248.392 21.995 248.047 21.906 247.653 21.906C247.233 21.906 246.864 22.0083 246.545 22.2128C246.227 22.4136 245.979 22.6787 245.801 23.0083C245.627 23.334 245.538 23.692 245.534 24.0822V25.2924C245.534 25.8 245.627 26.2356 245.812 26.5992C245.998 26.959 246.258 27.2356 246.591 27.4287C246.924 27.6181 247.314 27.7128 247.761 27.7128C248.061 27.7128 248.331 27.6712 248.574 27.5878C248.816 27.5007 249.027 27.3738 249.205 27.2072C249.383 27.0405 249.517 26.834 249.608 26.5878L251.528 26.8037C251.407 27.3113 251.176 27.7545 250.835 28.1333C250.498 28.5083 250.066 28.8 249.54 29.0083C249.013 29.2128 248.411 29.3151 247.733 29.3151Z" fill="#344054"/>
<g clip-path="url(#clip0_187_59)">
<path d="M108.008 23.8759C108.031 22.0838 108.97 20.4288 110.496 19.4906C109.53 18.1087 107.966 17.2644 106.281 17.2117C104.507 17.0257 102.788 18.2725 101.884 18.2725C100.963 18.2725 99.5715 17.2299 98.0726 17.2605C96.1014 17.3247 94.3074 18.4182 93.3481 20.1422C91.3059 23.6785 92.8286 28.8765 94.7856 31.7352C95.765 33.1353 96.9083 34.6984 98.4061 34.6437C99.8714 34.5834 100.419 33.7094 102.187 33.7094C103.939 33.7094 104.452 34.6437 105.98 34.6083C107.552 34.5824 108.542 33.2024 109.487 31.7889C110.191 30.7912 110.732 29.6892 111.091 28.5229C109.224 27.7332 108.01 25.9037 108.008 23.8759Z" fill="black"/>
<path d="M105.122 15.3314C105.979 14.3021 106.401 12.9796 106.299 11.6447C104.99 11.7827 103.779 12.4084 102.911 13.3974C102.053 14.374 101.618 15.6505 101.703 16.9481C103.03 16.9615 104.29 16.3654 105.122 15.3314Z" fill="black"/>
</g>
<defs>
<clipPath id="clip0_187_59">
<rect width="23" height="23" fill="white" transform="translate(90.2344 11.6447)"/>
</clipPath>
</defs>
</svg>
