<svg width="30" height="30" viewBox="0 0 30 30" fill="none" xmlns="http://www.w3.org/2000/svg">
<circle cx="15" cy="15" r="15" fill="#ECF4FF"/>
<g clip-path="url(#clip0_3641_4449)">
<path d="M18.8825 8.5427L11.7705 15.6547C11.4989 15.9249 11.2835 16.2462 11.1369 16.6002C10.9904 16.9542 10.9154 17.3337 10.9165 17.7168V18.5002C10.9165 18.6549 10.978 18.8033 11.0874 18.9127C11.1968 19.0221 11.3451 19.0835 11.4998 19.0835H12.2833C12.6664 19.0846 13.0459 19.0097 13.3999 18.8631C13.7538 18.7165 14.0752 18.5012 14.3453 18.2295L21.4573 11.1175C21.7982 10.7758 21.9897 10.3128 21.9897 9.83012C21.9897 9.34743 21.7982 8.88444 21.4573 8.5427C21.1107 8.21131 20.6495 8.02637 20.1699 8.02637C19.6903 8.02637 19.2292 8.21131 18.8825 8.5427ZM20.6325 10.2927L13.5205 17.4047C13.1916 17.7316 12.747 17.9157 12.2833 17.9169H12.0832V17.7168C12.0844 17.253 12.2684 16.8085 12.5953 16.4795L19.7073 9.36754C19.8319 9.24851 19.9976 9.18209 20.1699 9.18209C20.3422 9.18209 20.5079 9.24851 20.6325 9.36754C20.755 9.49034 20.8238 9.65669 20.8238 9.83012C20.8238 10.0036 20.755 10.1699 20.6325 10.2927Z" fill="#0066FF"/>
<path d="M21.4167 13.2378C21.262 13.2378 21.1136 13.2992 21.0042 13.4086C20.8948 13.518 20.8333 13.6664 20.8333 13.8211V16.75H18.5C18.0359 16.75 17.5908 16.9344 17.2626 17.2626C16.9344 17.5908 16.75 18.0359 16.75 18.5V20.8333H10.9167C10.4525 20.8333 10.0074 20.649 9.67923 20.3208C9.35104 19.9926 9.16667 19.5475 9.16667 19.0833V10.9167C9.16667 10.4525 9.35104 10.0074 9.67923 9.67923C10.0074 9.35104 10.4525 9.16667 10.9167 9.16667H16.1912C16.3459 9.16667 16.4943 9.10521 16.6036 8.99581C16.713 8.88642 16.7745 8.73804 16.7745 8.58333C16.7745 8.42862 16.713 8.28025 16.6036 8.17085C16.4943 8.06146 16.3459 8 16.1912 8H10.9167C10.1434 8.00093 9.40208 8.30851 8.8553 8.8553C8.30851 9.40208 8.00093 10.1434 8 10.9167L8 19.0833C8.00093 19.8566 8.30851 20.5979 8.8553 21.1447C9.40208 21.6915 10.1434 21.9991 10.9167 22H17.5334C17.9166 22.0011 18.2962 21.9262 18.6503 21.7796C19.0043 21.633 19.3258 21.4177 19.5961 21.146L21.1454 19.5955C21.4171 19.3253 21.6325 19.004 21.7792 18.65C21.9259 18.2961 22.0009 17.9166 22 17.5334V13.8211C22 13.6664 21.9385 13.518 21.8291 13.4086C21.7198 13.2992 21.5714 13.2378 21.4167 13.2378ZM18.7713 20.3212C18.5368 20.5551 18.2402 20.717 17.9167 20.7878V18.5C17.9167 18.3453 17.9781 18.1969 18.0875 18.0875C18.1969 17.9781 18.3453 17.9167 18.5 17.9167H20.7896C20.7174 18.2396 20.5557 18.5355 20.3229 18.7707L18.7713 20.3212Z" fill="#0066FF"/>
</g>
<defs>
<clipPath id="clip0_3641_4449">
<rect width="14" height="14" fill="white" transform="translate(8 8)"/>
</clipPath>
</defs>
</svg>
