<svg width="363" height="67" viewBox="0 0 363 67" fill="none" xmlns="http://www.w3.org/2000/svg">
<g filter="url(#filter0_d_185_50)">
<rect x="10" y="8.14917" width="343" height="46" rx="8" fill="white"/>
</g>
<g clip-path="url(#clip0_185_50)">
<path d="M112.223 31.3876C112.223 30.6844 112.166 29.9773 112.044 29.2855H102.286V33.2692H107.874C107.642 34.554 106.897 35.6906 105.806 36.4128V38.9976H109.14C111.098 37.1958 112.223 34.535 112.223 31.3876Z" fill="#4285F4"/>
<path d="M102.287 41.495C105.077 41.495 107.43 40.5789 109.144 38.9976L105.81 36.4128C104.883 37.0438 103.685 37.4011 102.29 37.4011C99.5915 37.4011 97.3032 35.5803 96.4821 33.1323H93.042V35.797C94.7982 39.2903 98.3751 41.495 102.287 41.495Z" fill="#036951"/>
<path d="M96.4782 33.1322C96.0448 31.8474 96.0448 30.4562 96.4782 29.1714V26.5067H93.0419C91.5746 29.4298 91.5746 32.8737 93.0419 35.7969L96.4782 33.1322Z" fill="#FBBC04"/>
<path d="M102.287 24.8988C103.761 24.876 105.187 25.431 106.255 26.4497L109.209 23.4962C107.338 21.74 104.856 20.7745 102.287 20.8049C98.3751 20.8049 94.7982 23.0096 93.042 26.5067L96.4783 29.1714C97.2955 26.7196 99.5877 24.8988 102.287 24.8988Z" fill="#EA4335"/>
</g>
<path d="M129.737 28.7117C129.684 28.2155 129.461 27.8291 129.067 27.5526C128.677 27.2761 128.169 27.1378 127.544 27.1378C127.105 27.1378 126.728 27.2041 126.413 27.3367C126.099 27.4692 125.858 27.6492 125.692 27.8764C125.525 28.1037 125.44 28.3632 125.436 28.6549C125.436 28.8973 125.491 29.1075 125.601 29.2855C125.714 29.4636 125.868 29.6151 126.061 29.7401C126.254 29.8613 126.468 29.9636 126.703 30.0469C126.938 30.1302 127.175 30.2003 127.413 30.2571L128.504 30.5299C128.944 30.6321 129.366 30.7704 129.771 30.9446C130.18 31.1189 130.546 31.3386 130.868 31.6037C131.194 31.8689 131.451 32.1889 131.641 32.5639C131.83 32.9389 131.925 33.3783 131.925 33.8821C131.925 34.5639 131.75 35.1643 131.402 35.6833C131.054 36.1984 130.55 36.6018 129.891 36.8935C129.235 37.1814 128.442 37.3253 127.51 37.3253C126.605 37.3253 125.819 37.1852 125.152 36.9049C124.489 36.6245 123.97 36.2155 123.595 35.6776C123.224 35.1397 123.023 34.4844 122.993 33.7117H125.067C125.097 34.117 125.222 34.4541 125.442 34.723C125.661 34.992 125.947 35.1927 126.3 35.3253C126.656 35.4579 127.054 35.5242 127.493 35.5242C127.951 35.5242 128.353 35.456 128.697 35.3196C129.046 35.1795 129.319 34.9863 129.516 34.7401C129.713 34.4901 129.813 34.1984 129.817 33.8651C129.813 33.562 129.724 33.312 129.55 33.1151C129.375 32.9143 129.131 32.7477 128.817 32.6151C128.506 32.4787 128.143 32.3575 127.726 32.2514L126.402 31.9105C125.444 31.6643 124.686 31.2912 124.129 30.7912C123.576 30.2874 123.3 29.6189 123.3 28.7855C123.3 28.0999 123.485 27.4995 123.857 26.9844C124.232 26.4692 124.741 26.0696 125.385 25.7855C126.029 25.4977 126.758 25.3537 127.572 25.3537C128.398 25.3537 129.122 25.4977 129.743 25.7855C130.368 26.0696 130.858 26.4655 131.214 26.973C131.571 27.4768 131.754 28.0564 131.766 28.7117H129.737ZM133.713 37.1492V28.4219H135.77V37.1492H133.713ZM134.747 27.1833C134.421 27.1833 134.141 27.0753 133.906 26.8594C133.671 26.6397 133.554 26.3764 133.554 26.0696C133.554 25.759 133.671 25.4958 133.906 25.2799C134.141 25.0602 134.421 24.9503 134.747 24.9503C135.077 24.9503 135.357 25.0602 135.588 25.2799C135.823 25.4958 135.94 25.759 135.94 26.0696C135.94 26.3764 135.823 26.6397 135.588 26.8594C135.357 27.0753 135.077 27.1833 134.747 27.1833ZM141.68 40.6037C140.942 40.6037 140.307 40.5033 139.777 40.3026C139.247 40.1056 138.821 39.8405 138.499 39.5071C138.177 39.1738 137.953 38.8045 137.828 38.3992L139.68 37.9503C139.764 38.1208 139.885 38.2893 140.044 38.456C140.203 38.6264 140.417 38.7666 140.686 38.8764C140.959 38.9901 141.302 39.0469 141.714 39.0469C142.298 39.0469 142.781 38.9049 143.163 38.6208C143.546 38.3405 143.737 37.8783 143.737 37.2344V35.581H143.635C143.529 35.7931 143.374 36.0109 143.169 36.2344C142.968 36.4579 142.701 36.6454 142.368 36.7969C142.038 36.9484 141.624 37.0242 141.124 37.0242C140.453 37.0242 139.845 36.867 139.3 36.5526C138.758 36.2344 138.326 35.7609 138.004 35.1321C137.686 34.4995 137.527 33.7079 137.527 32.7571C137.527 31.7988 137.686 30.9901 138.004 30.331C138.326 29.6681 138.76 29.1662 139.305 28.8253C139.851 28.4806 140.459 28.3083 141.129 28.3083C141.641 28.3083 142.061 28.3954 142.391 28.5696C142.724 28.7401 142.989 28.9465 143.186 29.1889C143.383 29.4276 143.533 29.653 143.635 29.8651H143.749V28.4219H145.777V37.2912C145.777 38.0374 145.599 38.6549 145.243 39.1435C144.887 39.6321 144.4 39.9977 143.783 40.2401C143.165 40.4825 142.464 40.6037 141.68 40.6037ZM141.697 35.4105C142.133 35.4105 142.504 35.3045 142.811 35.0924C143.118 34.8802 143.351 34.5753 143.51 34.1776C143.669 33.7799 143.749 33.3026 143.749 32.7458C143.749 32.1965 143.669 31.7155 143.51 31.3026C143.355 30.8897 143.124 30.5696 142.817 30.3424C142.514 30.1113 142.141 29.9958 141.697 29.9958C141.239 29.9958 140.857 30.1151 140.55 30.3537C140.243 30.5924 140.012 30.92 139.857 31.3367C139.701 31.7495 139.624 32.2192 139.624 32.7458C139.624 33.2799 139.701 33.7477 139.857 34.1492C140.016 34.5469 140.249 34.8575 140.555 35.081C140.866 35.3007 141.247 35.4105 141.697 35.4105ZM149.942 32.0355V37.1492H147.885V28.4219H149.851V29.9049H149.953C150.154 29.4162 150.474 29.028 150.913 28.7401C151.357 28.4522 151.904 28.3083 152.555 28.3083C153.158 28.3083 153.682 28.437 154.129 28.6946C154.58 28.9522 154.929 29.3253 155.175 29.8139C155.425 30.3026 155.548 30.8954 155.544 31.5924V37.1492H153.487V31.9105C153.487 31.3272 153.336 30.8708 153.033 30.5412C152.733 30.2117 152.319 30.0469 151.788 30.0469C151.429 30.0469 151.108 30.1264 150.828 30.2855C150.552 30.4408 150.334 30.6662 150.175 30.9617C150.019 31.2571 149.942 31.6151 149.942 32.0355ZM161.604 37.1492V28.4219H163.661V37.1492H161.604ZM162.638 27.1833C162.312 27.1833 162.032 27.0753 161.797 26.8594C161.562 26.6397 161.445 26.3764 161.445 26.0696C161.445 25.759 161.562 25.4958 161.797 25.2799C162.032 25.0602 162.312 24.9503 162.638 24.9503C162.967 24.9503 163.248 25.0602 163.479 25.2799C163.714 25.4958 163.831 25.759 163.831 26.0696C163.831 26.3764 163.714 26.6397 163.479 26.8594C163.248 27.0753 162.967 27.1833 162.638 27.1833ZM167.832 32.0355V37.1492H165.776V28.4219H167.741V29.9049H167.844C168.045 29.4162 168.365 29.028 168.804 28.7401C169.247 28.4522 169.795 28.3083 170.446 28.3083C171.048 28.3083 171.573 28.437 172.02 28.6946C172.471 28.9522 172.819 29.3253 173.065 29.8139C173.315 30.3026 173.438 30.8954 173.435 31.5924V37.1492H171.378V31.9105C171.378 31.3272 171.226 30.8708 170.923 30.5412C170.624 30.2117 170.209 30.0469 169.679 30.0469C169.319 30.0469 168.999 30.1264 168.719 30.2855C168.442 30.4408 168.224 30.6662 168.065 30.9617C167.91 31.2571 167.832 31.6151 167.832 32.0355ZM181.295 37.1492L178.83 28.4219H180.926L182.46 34.5583H182.54L184.108 28.4219H186.182L187.75 34.5242H187.835L189.347 28.4219H191.449L188.977 37.1492H186.835L185.199 31.2514H185.08L183.443 37.1492H181.295ZM192.885 37.1492V28.4219H194.942V37.1492H192.885ZM193.919 27.1833C193.593 27.1833 193.313 27.0753 193.078 26.8594C192.843 26.6397 192.726 26.3764 192.726 26.0696C192.726 25.759 192.843 25.4958 193.078 25.2799C193.313 25.0602 193.593 24.9503 193.919 24.9503C194.249 24.9503 194.529 25.0602 194.76 25.2799C194.995 25.4958 195.112 25.759 195.112 26.0696C195.112 26.3764 194.995 26.6397 194.76 26.8594C194.529 27.0753 194.249 27.1833 193.919 27.1833ZM201.415 28.4219V30.0128H196.398V28.4219H201.415ZM197.636 26.331H199.693V34.5242C199.693 34.8007 199.735 35.0128 199.818 35.1605C199.905 35.3045 200.019 35.403 200.159 35.456C200.299 35.509 200.455 35.5355 200.625 35.5355C200.754 35.5355 200.871 35.5261 200.977 35.5071C201.087 35.4882 201.17 35.4711 201.227 35.456L201.574 37.0639C201.464 37.1018 201.307 37.1435 201.102 37.1889C200.902 37.2344 200.655 37.2609 200.364 37.2685C199.848 37.2836 199.384 37.206 198.972 37.0355C198.559 36.8613 198.231 36.5924 197.989 36.2287C197.75 35.8651 197.633 35.4105 197.636 34.8651V26.331ZM205.379 32.0355V37.1492H203.322V25.5128H205.334V29.9049H205.436C205.641 29.4124 205.957 29.0242 206.385 28.7401C206.817 28.4522 207.366 28.3083 208.033 28.3083C208.639 28.3083 209.167 28.4352 209.618 28.6889C210.069 28.9427 210.417 29.3139 210.663 29.8026C210.913 30.2912 211.038 30.8878 211.038 31.5924V37.1492H208.982V31.9105C208.982 31.3234 208.83 30.867 208.527 30.5412C208.228 30.2117 207.807 30.0469 207.266 30.0469C206.902 30.0469 206.576 30.1264 206.288 30.2855C206.004 30.4408 205.781 30.6662 205.618 30.9617C205.459 31.2571 205.379 31.6151 205.379 32.0355ZM224.99 29.2287C224.895 28.9219 224.765 28.6473 224.598 28.4049C224.435 28.1586 224.238 27.9484 224.007 27.7742C223.78 27.5999 223.518 27.4692 223.223 27.3821C222.928 27.2912 222.606 27.2458 222.257 27.2458C221.632 27.2458 221.075 27.403 220.587 27.7174C220.098 28.0317 219.714 28.4939 219.433 29.1037C219.157 29.7098 219.018 30.4484 219.018 31.3196C219.018 32.1984 219.157 32.9427 219.433 33.5526C219.71 34.1624 220.094 34.6264 220.587 34.9446C221.079 35.259 221.651 35.4162 222.303 35.4162C222.893 35.4162 223.405 35.3026 223.837 35.0753C224.272 34.848 224.607 34.5261 224.842 34.1094C225.077 33.6889 225.195 33.1965 225.195 32.6321L225.672 32.706H222.513V31.0583H227.234V32.456C227.234 33.4522 227.022 34.3139 226.598 35.0412C226.174 35.7685 225.59 36.3291 224.848 36.723C224.106 37.1132 223.253 37.3083 222.291 37.3083C221.219 37.3083 220.278 37.0677 219.467 36.5867C218.661 36.1018 218.03 35.4143 217.575 34.5242C217.125 33.6302 216.899 32.5696 216.899 31.3424C216.899 30.403 217.032 29.5639 217.297 28.8253C217.566 28.0867 217.941 27.4598 218.422 26.9446C218.903 26.4257 219.467 26.0317 220.115 25.7628C220.763 25.4901 221.467 25.3537 222.229 25.3537C222.873 25.3537 223.473 25.4484 224.03 25.6378C224.587 25.8234 225.081 26.0886 225.513 26.4333C225.948 26.778 226.306 27.187 226.587 27.6605C226.867 28.134 227.051 28.6567 227.138 29.2287H224.99ZM232.989 37.3196C232.136 37.3196 231.398 37.1321 230.773 36.7571C230.148 36.3821 229.663 35.8575 229.318 35.1833C228.977 34.509 228.807 33.7211 228.807 32.8196C228.807 31.9181 228.977 31.1283 229.318 30.4503C229.663 29.7723 230.148 29.2458 230.773 28.8708C231.398 28.4958 232.136 28.3083 232.989 28.3083C233.841 28.3083 234.58 28.4958 235.205 28.8708C235.83 29.2458 236.313 29.7723 236.653 30.4503C236.998 31.1283 237.17 31.9181 237.17 32.8196C237.17 33.7211 236.998 34.509 236.653 35.1833C236.313 35.8575 235.83 36.3821 235.205 36.7571C234.58 37.1321 233.841 37.3196 232.989 37.3196ZM233 35.6719C233.462 35.6719 233.848 35.545 234.159 35.2912C234.47 35.0336 234.701 34.6889 234.852 34.2571C235.008 33.8253 235.085 33.3442 235.085 32.8139C235.085 32.2799 235.008 31.7969 234.852 31.3651C234.701 30.9295 234.47 30.5829 234.159 30.3253C233.848 30.0677 233.462 29.9389 233 29.9389C232.527 29.9389 232.133 30.0677 231.818 30.3253C231.508 30.5829 231.275 30.9295 231.119 31.3651C230.968 31.7969 230.892 32.2799 230.892 32.8139C230.892 33.3442 230.968 33.8253 231.119 34.2571C231.275 34.6889 231.508 35.0336 231.818 35.2912C232.133 35.545 232.527 35.6719 233 35.6719ZM242.723 37.3196C241.871 37.3196 241.132 37.1321 240.507 36.7571C239.882 36.3821 239.397 35.8575 239.053 35.1833C238.712 34.509 238.541 33.7211 238.541 32.8196C238.541 31.9181 238.712 31.1283 239.053 30.4503C239.397 29.7723 239.882 29.2458 240.507 28.8708C241.132 28.4958 241.871 28.3083 242.723 28.3083C243.575 28.3083 244.314 28.4958 244.939 28.8708C245.564 29.2458 246.047 29.7723 246.388 30.4503C246.732 31.1283 246.905 31.9181 246.905 32.8196C246.905 33.7211 246.732 34.509 246.388 35.1833C246.047 35.8575 245.564 36.3821 244.939 36.7571C244.314 37.1321 243.575 37.3196 242.723 37.3196ZM242.734 35.6719C243.196 35.6719 243.583 35.545 243.893 35.2912C244.204 35.0336 244.435 34.6889 244.587 34.2571C244.742 33.8253 244.82 33.3442 244.82 32.8139C244.82 32.2799 244.742 31.7969 244.587 31.3651C244.435 30.9295 244.204 30.5829 243.893 30.3253C243.583 30.0677 243.196 29.9389 242.734 29.9389C242.261 29.9389 241.867 30.0677 241.553 30.3253C241.242 30.5829 241.009 30.9295 240.854 31.3651C240.702 31.7969 240.626 32.2799 240.626 32.8139C240.626 33.3442 240.702 33.8253 240.854 34.2571C241.009 34.6889 241.242 35.0336 241.553 35.2912C241.867 35.545 242.261 35.6719 242.734 35.6719ZM252.446 40.6037C251.707 40.6037 251.073 40.5033 250.543 40.3026C250.012 40.1056 249.586 39.8405 249.264 39.5071C248.942 39.1738 248.719 38.8045 248.594 38.3992L250.446 37.9503C250.529 38.1208 250.651 38.2893 250.81 38.456C250.969 38.6264 251.183 38.7666 251.452 38.8764C251.724 38.9901 252.067 39.0469 252.48 39.0469C253.063 39.0469 253.546 38.9049 253.929 38.6208C254.312 38.3405 254.503 37.8783 254.503 37.2344V35.581H254.401C254.295 35.7931 254.139 36.0109 253.935 36.2344C253.734 36.4579 253.467 36.6454 253.134 36.7969C252.804 36.9484 252.389 37.0242 251.889 37.0242C251.219 37.0242 250.611 36.867 250.065 36.5526C249.524 36.2344 249.092 35.7609 248.77 35.1321C248.452 34.4995 248.293 33.7079 248.293 32.7571C248.293 31.7988 248.452 30.9901 248.77 30.331C249.092 29.6681 249.526 29.1662 250.071 28.8253C250.616 28.4806 251.224 28.3083 251.895 28.3083C252.406 28.3083 252.827 28.3954 253.156 28.5696C253.49 28.7401 253.755 28.9465 253.952 29.1889C254.149 29.4276 254.298 29.653 254.401 29.8651H254.514V28.4219H256.543V37.2912C256.543 38.0374 256.365 38.6549 256.009 39.1435C255.652 39.6321 255.166 39.9977 254.548 40.2401C253.931 40.4825 253.23 40.6037 252.446 40.6037ZM252.463 35.4105C252.899 35.4105 253.27 35.3045 253.577 35.0924C253.884 34.8802 254.116 34.5753 254.276 34.1776C254.435 33.7799 254.514 33.3026 254.514 32.7458C254.514 32.1965 254.435 31.7155 254.276 31.3026C254.12 30.8897 253.889 30.5696 253.582 30.3424C253.279 30.1113 252.906 29.9958 252.463 29.9958C252.005 29.9958 251.622 30.1151 251.315 30.3537C251.009 30.5924 250.777 30.92 250.622 31.3367C250.467 31.7495 250.389 32.2192 250.389 32.7458C250.389 33.2799 250.467 33.7477 250.622 34.1492C250.781 34.5469 251.014 34.8575 251.321 35.081C251.632 35.3007 252.012 35.4105 252.463 35.4105ZM260.707 25.5128V37.1492H258.651V25.5128H260.707ZM266.686 37.3196C265.811 37.3196 265.055 37.1378 264.419 36.7742C263.786 36.4067 263.3 35.8878 262.959 35.2174C262.618 34.5431 262.447 33.7495 262.447 32.8367C262.447 31.9389 262.618 31.1511 262.959 30.473C263.304 29.7912 263.785 29.2609 264.402 28.8821C265.019 28.4995 265.745 28.3083 266.578 28.3083C267.116 28.3083 267.624 28.3954 268.101 28.5696C268.582 28.7401 269.006 29.0052 269.374 29.3651C269.745 29.7249 270.036 30.1833 270.249 30.7401C270.461 31.2931 270.567 31.9522 270.567 32.7174V33.348H263.413V31.9617H268.595C268.591 31.5677 268.506 31.2174 268.339 30.9105C268.173 30.5999 267.94 30.3556 267.641 30.1776C267.345 29.9995 267 29.9105 266.607 29.9105C266.186 29.9105 265.817 30.0128 265.499 30.2174C265.18 30.4181 264.932 30.6833 264.754 31.0128C264.58 31.3386 264.491 31.6965 264.487 32.0867V33.2969C264.487 33.8045 264.58 34.2401 264.766 34.6037C264.951 34.9636 265.211 35.2401 265.544 35.4333C265.877 35.6227 266.268 35.7174 266.714 35.7174C267.014 35.7174 267.285 35.6757 267.527 35.5924C267.769 35.5052 267.98 35.3783 268.158 35.2117C268.336 35.045 268.47 34.8386 268.561 34.5924L270.482 34.8083C270.36 35.3158 270.129 35.759 269.788 36.1378C269.451 36.5128 269.019 36.8045 268.493 37.0128C267.966 37.2174 267.364 37.3196 266.686 37.3196Z" fill="#344054"/>
<defs>
<filter id="filter0_d_185_50" x="0" y="0.14917" width="363" height="66" filterUnits="userSpaceOnUse" color-interpolation-filters="sRGB">
<feFlood flood-opacity="0" result="BackgroundImageFix"/>
<feColorMatrix in="SourceAlpha" type="matrix" values="0 0 0 0 0 0 0 0 0 0 0 0 0 0 0 0 0 0 127 0" result="hardAlpha"/>
<feOffset dy="2"/>
<feGaussianBlur stdDeviation="5"/>
<feComposite in2="hardAlpha" operator="out"/>
<feColorMatrix type="matrix" values="0 0 0 0 0.592157 0 0 0 0 0.592157 0 0 0 0 0.592157 0 0 0 0.15 0"/>
<feBlend mode="normal" in2="BackgroundImageFix" result="effect1_dropShadow_185_50"/>
<feBlend mode="normal" in="SourceGraphic" in2="effect1_dropShadow_185_50" result="shape"/>
</filter>
<clipPath id="clip0_185_50">
<rect width="20.69" height="20.69" fill="white" transform="translate(91.7344 20.8042)"/>
</clipPath>
</defs>
</svg>
